<svg width="1009" height="635" viewBox="0 0 1009 635" fill="none" xmlns="http://www.w3.org/2000/svg">
<g filter="url(#filter0_f_2526_4047)">
<ellipse cx="505" cy="586" rx="452.5" ry="5" fill="black"/>
</g>
<path d="M99.5 28C99.5 13.0883 111.588 1 126.5 1H886.5C901.412 1 913.5 13.0883 913.5 28V550C913.5 551.657 912.157 553 910.5 553H102.5C100.843 553 99.5 551.657 99.5 550V28Z" fill="#1A202C" stroke="#4A5568" stroke-width="2"/>
<path d="M103.5 27C103.5 14.8497 113.35 5 125.5 5H887.5C899.65 5 909.5 14.8497 909.5 27V533H103.5V27Z" fill="black"/>
<rect x="119.5" y="31" width="770" height="480" fill="white"/>
<path d="M0.5 552C0.5 550.895 1.39543 550 2.5 550H1006.5C1007.6 550 1008.5 550.895 1008.5 552V568H0.5V552Z" fill="#A3ACB1"/>
<path d="M0.5 552C0.5 550.895 1.39543 550 2.5 550H1006.5C1007.6 550 1008.5 550.895 1008.5 552V568H0.5V552Z" fill="url(#paint0_linear_2526_4047)"/>
<path d="M0.5 568H1008.5L988.146 572.105C962.113 577.355 935.623 580 909.066 580H98.4089C69.224 580 40.1267 576.806 11.6367 570.475L0.5 568Z" fill="#647279"/>
<path d="M0.5 568H1008.5L988.146 572.105C962.113 577.355 935.623 580 909.066 580H98.4089C69.224 580 40.1267 576.806 11.6367 570.475L0.5 568Z" fill="url(#paint1_linear_2526_4047)"/>
<path fill-rule="evenodd" clip-rule="evenodd" d="M421.533 550C422.048 557.818 428.552 564 436.5 564H573.5C581.449 564 587.953 557.818 588.468 550H421.533Z" fill="#96A1A8"/>
<path fill-rule="evenodd" clip-rule="evenodd" d="M421.533 550C422.048 557.818 428.552 564 436.5 564H573.5C581.449 564 587.953 557.818 588.468 550H421.533Z" fill="url(#paint2_linear_2526_4047)"/>
<defs>
<filter id="filter0_f_2526_4047" x="8.5" y="537" width="993" height="98" filterUnits="userSpaceOnUse" color-interpolation-filters="sRGB">
<feFlood flood-opacity="0" result="BackgroundImageFix"/>
<feBlend mode="normal" in="SourceGraphic" in2="BackgroundImageFix" result="shape"/>
<feGaussianBlur stdDeviation="22" result="effect1_foregroundBlur_2526_4047"/>
</filter>
<linearGradient id="paint0_linear_2526_4047" x1="0.5" y1="559" x2="1008.5" y2="559" gradientUnits="userSpaceOnUse">
<stop stop-color="#0D1012"/>
<stop offset="0.0295345" stop-color="#CAD4DB"/>
<stop offset="0.0625" stop-color="#242729"/>
<stop offset="0.133609" stop-color="#A3ACB1"/>
<stop offset="0.865967" stop-color="#A3ACB1"/>
<stop offset="0.941937" stop-color="#242729"/>
<stop offset="0.971275" stop-color="#CAD4DB"/>
<stop offset="0.996436" stop-color="#0D1012"/>
</linearGradient>
<linearGradient id="paint1_linear_2526_4047" x1="504.5" y1="568" x2="504.5" y2="580" gradientUnits="userSpaceOnUse">
<stop stop-color="#7A7F83"/>
<stop offset="1" stop-color="#0B0B0E"/>
</linearGradient>
<linearGradient id="paint2_linear_2526_4047" x1="438" y1="558.5" x2="575" y2="558.5" gradientUnits="userSpaceOnUse">
<stop stop-color="#3C3C3C"/>
<stop offset="0.317518" stop-color="#3C3C3C" stop-opacity="0"/>
<stop offset="0.660584" stop-color="#3C3C3C" stop-opacity="0"/>
<stop offset="1" stop-color="#444444"/>
</linearGradient>
</defs>
</svg>
